<svg xmlns="http://www.w3.org/2000/svg" width="1080" height="1080" viewBox="0 0 1080 1080">
  <defs>
    <style>
      .cls-1 {
        fill-rule: evenodd;
      }
    </style>
  </defs>
  <path id="Color_Fill_2" data-name="Color Fill 2" class="cls-1" d="M940,284c39.611-.359,60.6,30.958,49,69q-42.5,131.487-85,263c-6.2,9.655-16.207,14.085-24,22,3.107,8.237,8.287,15.721,10,26,2.778,16.668-17.96,76.656-25,89-5.277,9.253-15.8,19.815-26,24-24.29,9.969-125.8,19.678-145,6-17.215-12.264-15.243-28.047-20-51-13.764-1.558-26.562,4.165-43,7-48.085,8.293-95.382,6.645-138,14l-77,8-24-2c-17.34,5.4-101.314,20.984-123,16-39.208-9.011-17.939-65.4-6-92,10.4-23.164,46.915-27.237,80-27q6-19,12-38c-66.6,4.1-127.746,8.685-191,20-32.065,5.736-65.476,8.293-71-22-2.775-15.217,8.9-34.373,13-46,7.3-20.7,10.121-54.609,26-67,20.332-15.866,77.3-16.627,109-18,9.8-.424,19.933,5.4,26,4l11-7c20.422-6.312,107.84-14.746,126-9,12.26-3.234,31.842-13.308,50-11l20,7c10.848-9.8,30.033-13.471,50-14l16,2c53.473-10.965,111.4-11.174,164-20l62-5,10-31c9.53-28.038,17.213-60.1,34-81,21.076-26.245,58.632-26.257,100-33Zm0,21-84,10c-38.231,11.768-43.036,45.646-56,83l-13,43c22.913,17.766-5.072,104.939-19,123-5.79,7.508-14.946,11.66-26,14q0.5,2.5,1,5l17,6c13.641-17.526,70.607-21.812,80,1,4.487,10.9.018,22.289-2,32l2,1c14.256-2.653,28.408-2.124,38-9,14.621-10.482,17.94-41.194,24-60l54-166C964.485,361.292,989.494,304.813,940,305ZM754,453c-44.943,17.356-85.479-15.347-102,37-1.961,6.215-7.693,14.516-5,22q1,2,2,4l63-4,5,3q-2.5,10.5-5,21c-7.36,2.857-20.319,6.652-30,4v-2l3-2,18-3c4.14-3.06,5.956-5.675,7-12l-2-2c-19.605-.317-60.33.156-69,12l-10,29,6,8c17.511-.6,102.893-6.956,112-13,13.5-8.962,16.424-41.268,22-58,4.042-12.128,10.6-23.267,7-38C769.876,454.507,765.747,452.713,754,453ZM641,464c-27.831,10.511-71.169-1.092-94,14-4.926,27.462-32.062,71.7-28,98,25.479,12.4,66.734-12.418,56-40q-1-2-2-4c-6.153-.822-17.132,1.632-22-2l3-4,79-8c8.077-11.956,14.213-31.671,17-48C646.705,467.1,646.092,465.6,641,464ZM521,476l-27,4c-14.418,6.3-18.754,39.543-24,55l-52,4q0.5-2.5,1-5c11.7-.692,23.788-2.09,31-7,2.11-11.339,12.395-26.751,10-37l-3-6c-57.1-.693-49.947,26.037-63,67-2.883,9.046-13.146,26.072-10,36l3,5c18.841,0.14,102.357-5.733,113-12,8.038-4.733,35.764-87.239,34-100l-2-3ZM385,491c-42.68,15.68-100.146-11.054-115,35-2.727,8.455-6.455,14.752-2,23h22l-2,1c-18.555,13.287-44,19.046-39,53l4,3c12.672,3.384,106.09-7.111,114-13,7.434-5.535,13.629-24.069,14-36a11.144,11.144,0,0,0-4-4l-21,1-35,3c-14.854,4.623-34.912,24.353-51,22v-4l50-24c43.751-13.2,57.044,11.389,73-35,3.191-9.277,6.8-16.307,1-25h-9ZM238,506l-85,9c-12.6,4.02-42.5,93.4-35,105l109-10c6.788-2.266,10.257-8.493,13-15-9.171-18.618-53.506,3.841-73-2l-3-2,9-29c7.206-2.541,20.151-4.83,28-4q0.5,1,1,2c-0.542,5.43-1.2,6.875-5,9-7.041,3.469-17.925,1.354-22,8-2.031,2.952-2.181,6.077-1,10,14.278,0.134,58.285-2.138,67-8,11.142-7.493,20.931-44.816,22-61l-6-10Zm367,36-9,3c-11.108,64.547-53.662,49.448-108,59-13.933,2.449-36.049-1.164-46,6l2,3c28.4-2.154,87.005-16.415,109-4l13-8,77-9c19.289-3.9,68.274,1.329,75-11h-6l-52,5c-42.7,6.858-53.6-4.625-48-44h-7Zm206,53c-12.978,5.235-30.416-.314-38,10-8.824,12-6.6,40.919-19,49-10.69,4.412-39.122,6.869-50,4v-2l3-2,26-4c6.3-9.8,15.056-30.581,13-44-55.446-27.122-66.206,66.375-77,98l6,8c18.172-.977,102.271-6.6,112-13,8.12-5.34,35.2-87.265,33-101ZM673,610L570,622c-11.46,6.392-13.4,26.708-18,40-3.933,11.378-12.049,24.223-5,35l66-5q-0.5,2.5-1,5c-21.447,1.547-57.073,1.028-74,10-1.755,5.306-6.985,15.472,0,19l43-4c47.755-8.648,78.26,8.1,86-44-2-2.3-2.088-3.345-5-5-22.044-8.605-64.851,11.832-89,6v-1q0.5-2,1-4c25.527-2.866,83.4-3.074,100-15,2.8-14.4,16.644-34.747,9-48Zm-261,6c-13.484,5.238-29.77-.12-37,11q-7.5,24-15,48l-64,6c-13.333,3.511-34.67,58.493-27,72,10.5,2.009,105.366-6.777,113-11,7.176-3.969,18.2-27.286,15-37-9.232-16.825-81,12.389-98,1l3-4c22.218-.093,96.928-5.588,104-18q4.5-15.5,9-31c3.371-10.647,12.414-24.926,6-36Zm116,9-88,9c-10.131,3.079-42.084,87.425-39,100,1.372,3.6.9,3.172,4,5l109-10c6.579-2.689,10.97-8.443,12-17l-4-5c-24.111.118-48.407,8.885-71,5v-6l10-26c7.7-1.92,22.687-5.245,28,0l-4,9c-8.53,1.4-17.979,2.459-24,6q-1,4.5-2,9l3,2c7.2,2.193,60.321-4.088,66-8,6.032-4.155,9.663-17.492,12-25,4.534-14.568,16.734-39.588-1-47Zm305,17c-17.326,23.469-11.2,67.018-41,78-16.44,6.059-87.97,4.354-95,14-19.851,40.647,43.746,36.671,71,32,24.743-4.24,62.5-1.141,75-18,7.731-10.424,9.7-26.4,14-40C865.766,680.242,882.15,640.766,833,642Z"/>
</svg>
