<?xml version="1.0" encoding="utf-8"?>
<!-- Generator: Adobe Illustrator 24.3.0, SVG Export Plug-In . SVG Version: 6.00 Build 0)  -->
<svg version="1.1" id="Layer_1" xmlns="http://www.w3.org/2000/svg" xmlns:xlink="http://www.w3.org/1999/xlink" x="0px" y="0px"
	 viewBox="0 0 1920 1080" style="enable-background:new 0 0 1920 1080;" xml:space="preserve">
<style type="text/css">
	.st0{fill:#FFFFFF;}
	.st1{fill:url(#SVGID_1_);}
</style>
<g>
	<path class="st0" d="M-82.5,812.5c0,0,581,234,822-392s-627-545-580-31s996,168,1222-23s-27-354-93-214
		c-52.05,110.42,87.46,357.3,291.56,489.65c87.12,56.49,170.02,81.71,221.94,93.85"/>
	<g>
		<linearGradient id="SVGID_1_" gradientUnits="userSpaceOnUse" x1="-83.9944" y1="416.2835" x2="1802.9106" y2="416.2835">
			<stop  offset="0" style="stop-color:#FFFFFF"/>
			<stop  offset="1" style="stop-color:#000000"/>
		</linearGradient>
		<path class="st1" d="M-95.26,858.79c23.53,9.46,48.46,16.09,73.07,21.97c62.77,15.01,127.97,23.1,192.53,22.54
			c87.34-0.76,173.05-17.99,253.26-52.5c97.02-41.75,177.86-111.37,241.74-194.68c37.99-49.55,69.12-103.97,94.63-160.9
			c24.85-55.47,46.73-112.79,58.79-172.53c17.07-84.51,17.02-175.14-24.65-252.83C760.81,7.77,701.69-35.82,635.03-56.31
			c-66.87-20.56-140.76-17.88-207.9-0.13C354.87-37.32,287.05,0.67,233.26,52.58c-57.26,55.26-98.34,128.3-114.22,206.39
			c-18.21,89.53-11.54,188.27,30.82,270.28c37.86,73.31,106.26,122.41,182.84,149.15c80.32,28.05,169.28,31.85,253.49,26.17
			c98.1-6.61,195.43-25.79,290.05-52.09c94.54-26.28,186.83-60.12,276.62-99.63c70.91-31.2,141.01-66.21,205.39-109.51
			c88.26-59.36,187.28-155.81,158.31-272.84c-12.84-51.88-52.53-91.89-101.79-110.3c-47.64-17.8-103.3-6.37-139.71,29.06
			c-37.24,36.23-49.84,90.81-44.11,141.13c6.87,60.37,29.13,117.01,58.47,169.96c33.39,60.27,76.31,115.99,124.07,165.55
			c53.13,55.13,114.42,103.86,181.36,141.15c60.77,33.85,126.72,59.31,194.43,75.23c24.39,5.74,53.14-7.6,59.05-33.53
			c5.6-24.57-7.38-52.9-33.53-59.05c-28.08-6.6-55.77-14.78-82.86-24.66c-7.8-2.85-15.55-5.83-23.24-8.95
			c-1.89-0.77-5.08-2.88-7.04-2.9c0.83,0.01,10.73,4.64,2.9,1.19c-4.86-2.14-9.71-4.28-14.53-6.5
			c-18.55-8.56-36.72-17.93-54.44-28.11c-17.21-9.88-33.99-20.53-50.27-31.88c-6.67-4.65-13.25-9.41-19.76-14.28
			c-1.53-1.15-3.05-2.31-4.58-3.46c-5.35-3.99,9.59,7.58,1.77,1.37c-3.75-2.97-7.5-5.93-11.21-8.94
			c-26.13-21.26-50.85-44.25-74.05-68.67c-11.53-12.13-22.68-24.61-33.43-37.43c-4.99-5.95-9.9-11.98-14.71-18.07
			c-1.11-1.41-2.19-2.91-3.36-4.28c8.28,9.72,4.35,5.67,2.55,3.28c-2.7-3.58-5.4-7.16-8.06-10.77
			c-18.29-24.89-35.12-50.9-49.93-78.01c-6.87-12.57-13.3-25.39-19.19-38.45c-1.26-2.79-2.42-5.63-3.7-8.42
			c7.05,15.36,1.49,3.49,0.1-0.01c-2.57-6.45-4.99-12.95-7.24-19.51c-4.01-11.7-7.49-23.59-10.25-35.66
			c-1.22-5.34-2.29-10.71-3.2-16.12c-0.72-4.29-1.41-15.71,0.22,2.61c-0.27-3.01-0.7-6-0.95-9.01c-0.87-10.18-1.03-20.44-0.17-30.63
			c0.18-2.13,0.51-4.25,0.67-6.38c-1.35,17.6-1.36,9.59-0.5,5.02c0.88-4.71,2.03-9.38,3.47-13.95c0.67-2.11,1.47-4.16,2.18-6.25
			c2.13-6.29-6.24,13.01-2,4.82c2.57-4.96,5.07-9.86,8.19-14.5c0.44-0.66,2.43-2.73,2.39-3.41c0,0.02-8.46,10.13-4.52,5.86
			c1.43-1.55,2.73-3.23,4.18-4.77c1.58-1.68,3.23-3.3,4.95-4.86c0.75-0.68,1.53-1.32,2.28-1.99c6.09-5.46-9.27,6.37-5.03,3.83
			c3.53-2.11,6.79-4.56,10.48-6.46c0.83-0.43,1.74-0.8,2.56-1.26c4.8-2.72-7.91,3.12-7.57,3.13c1.77,0.03,4.85-1.82,6.62-2.37
			c3.66-1.13,8.95-1.11,12.26-2.79c0.59-0.3-14.34,1.41-8.6,1.2c0.92-0.03,1.86-0.17,2.79-0.23c2.33-0.16,4.66-0.22,7-0.2
			c2.12,0.02,4.21,0.2,6.32,0.28c1.04,0.04,2.53,0.56,3.51,0.34c0.68-0.15-14.26-2.36-8.55-1.13c4.21,0.9,8.38,1.63,12.52,2.84
			c2.08,0.61,4.11,1.33,6.16,2.03c10,3.4-9.92-4.74-4.07-1.84c3.95,1.96,7.89,3.84,11.68,6.12c1.69,1.02,3.35,2.08,4.98,3.18
			c1.83,1.24,9.36,6.95,1.15,0.62c-8.1-6.24-0.92-0.59,0.9,1.03c1.88,1.67,3.69,3.4,5.45,5.19c1.42,1.44,2.79,2.92,4.13,4.44
			c1.45,1.65,7.41,9.21,1.08,1.04c-6.24-8.06-0.62-0.63,0.72,1.4c1.43,2.16,2.78,4.37,4.05,6.62c1.03,1.82,2,3.67,2.92,5.55
			c0.46,0.94,0.88,1.91,1.35,2.86c3.19,6.45-4.47-11.53-2.67-6.34c1.7,4.87,3.43,9.66,4.63,14.69c0.52,2.16,0.91,4.34,1.36,6.51
			c2.1,10.28-1.08-12.85-0.47-3.51c0.36,5.6,0.64,11.13,0.37,16.75c-0.12,2.45-0.45,4.88-0.57,7.33c-0.33,6.71,1.09-7.4,1-7.17
			c-0.4,0.98-0.43,2.67-0.62,3.78c-1.12,6.23-2.68,12.38-4.6,18.42c-0.96,3.03-2.09,5.99-3.16,8.98c-1.13,3.15-3.85,7.55,2.36-5.39
			c-0.64,1.34-1.2,2.73-1.82,4.09c-3.12,6.79-6.67,13.39-10.54,19.79c-3.79,6.27-7.98,12.2-12.2,18.18
			c-4.45,6.31,2.03-2.71,2.54-3.2c-1.64,1.56-2.96,3.71-4.41,5.46c-3.1,3.75-6.29,7.41-9.56,11c-11.74,12.9-24.5,24.87-37.88,36.06
			c-2.45,2.05-4.93,4.07-7.44,6.07c-1.15,0.91-2.3,1.82-3.45,2.73c-6.71,5.31,11.25-8.52,4.37-3.38
			c-5.7,4.26-11.41,8.49-17.23,12.59c-12.89,9.08-26.09,17.69-39.49,25.99c-31.09,19.25-63.22,36.8-95.86,53.25
			c-18.37,9.26-36.92,18.16-55.62,26.75c-9.47,4.35-18.98,8.61-28.52,12.8c-4.99,2.19-9.99,4.36-15.01,6.51
			c-2.24,0.96-4.49,1.91-6.74,2.87c-7.11,3.04,10.84-4.55,5.54-2.33c-1.42,0.59-2.84,1.19-4.26,1.78
			c-42.21,17.62-85.02,33.79-128.33,48.5c-88.29,29.98-178.83,54.22-270.89,69.33c-11.27,1.85-22.57,3.53-33.88,5.11
			c-6.11,0.85,14.07-1.85,3.41-0.47c-3.11,0.4-6.22,0.79-9.33,1.17c-5.57,0.67-11.13,1.31-16.71,1.9c-21.82,2.32-43.7,4-65.63,4.89
			c-40.88,1.67-81.69,0.36-122.32-4.54c-5.38-0.65,13.28,1.84,7.92,1.07c-1.34-0.19-2.67-0.37-4.01-0.57
			c-2.13-0.31-4.25-0.63-6.37-0.96c-4.73-0.74-9.45-1.55-14.16-2.42c-9.22-1.71-18.4-3.68-27.5-5.94
			c-17.49-4.34-34.72-9.73-51.45-16.43c-0.9-0.36-1.8-0.75-2.71-1.1c-5.82-2.26,8.35,3.71,7.43,3.15c-1.97-1.2-4.53-1.96-6.64-2.91
			c-3.93-1.77-7.82-3.62-11.67-5.55c-7.59-3.81-15.03-7.92-22.27-12.37c-7.14-4.38-14.01-9.14-20.75-14.1
			c-7.28-5.35,9.29,7.42,4.23,3.28c-1.6-1.31-3.23-2.6-4.83-3.93c-3.36-2.8-6.64-5.69-9.85-8.66c-5.91-5.48-11.56-11.26-16.89-17.3
			c-2.61-2.96-5.11-5.99-7.6-9.05c-5.9-7.24,7.72,10.41,2.8,3.63c-1.38-1.9-2.78-3.77-4.12-5.69c-9.9-14.08-17.92-29.12-24.99-44.78
			c-2.74-6.07,5.68,13.91,1.67,3.82c-0.84-2.12-1.66-4.26-2.45-6.4c-1.61-4.36-3.11-8.76-4.51-13.19
			c-2.9-9.21-5.35-18.55-7.39-27.99c-1.06-4.91-2.01-9.85-2.86-14.81c-0.38-2.25-0.75-4.5-1.09-6.76c-0.17-1.14-0.32-2.28-0.5-3.42
			c-1.24-7.81,1.6,13.76,0.8,5.84c-1.08-10.69-2.19-21.33-2.69-32.07c-0.96-20.46-0.49-40.99,1.6-61.37
			c0.22-2.18,0.48-4.35,0.73-6.53c1.15-10.31-1.91,12.97-0.54,3.89c0.76-5.03,1.55-10.06,2.48-15.06
			c1.67-9.02,3.68-17.99,6.03-26.86c2.36-8.9,5.06-17.72,8.1-26.41c1.41-4.04,2.9-8.05,4.46-12.04c0.82-2.1,1.69-4.17,2.52-6.26
			c1.9-4.82-5.21,12.06-3.1,7.34c0.61-1.36,1.18-2.73,1.79-4.1c7.03-15.84,15.24-31.15,24.54-45.78c4.63-7.27,9.52-14.38,14.67-21.3
			c1.45-1.94,6.86-8.97,0.57-0.82c-6.38,8.27-0.73,1,0.66-0.73c2.68-3.31,5.41-6.58,8.2-9.79c11.06-12.75,23.02-24.72,35.72-35.83
			c2.98-2.6,5.99-5.16,9.05-7.67c1.61-1.33,3.24-2.64,4.87-3.94c0.73-0.58,1.46-1.14,2.19-1.72c5.43-4.37-10.92,8.24-5.31,4.11
			c6.7-4.93,13.39-9.84,20.33-14.44c13.55-8.99,27.66-17.13,42.21-24.39c3.46-1.73,6.94-3.4,10.45-5.03
			c1.85-0.86,3.71-1.7,5.57-2.53c2.26-1,10.97-4.71,1.12-0.55c-9.93,4.19,2.55-0.99,5.56-2.16c3.77-1.46,7.57-2.87,11.38-4.22
			c15.09-5.33,30.51-9.76,46.14-13.22c7.7-1.7,15.45-3.17,23.23-4.39c1.93-0.3,3.87-0.57,5.81-0.86c1.45-0.22-15.76,2.01-5.67,0.78
			c3.85-0.47,7.71-0.87,11.58-1.22c15.21-1.35,30.51-1.75,45.76-1.07c7.47,0.33,14.92,0.92,22.35,1.77c1.64,0.19,3.27,0.42,4.9,0.61
			c-19.07-2.15-11.05-1.56-6.67-0.85c3.82,0.62,7.64,1.24,11.45,1.98c14.16,2.74,28.11,6.54,41.66,11.5
			c3.15,1.15,6.24,2.44,9.37,3.65c4.77,1.85-13.77-6.11-6.05-2.52c1.78,0.83,3.57,1.6,5.35,2.44c6.35,2.99,12.56,6.26,18.61,9.82
			c6.02,3.54,11.87,7.36,17.52,11.46c1.41,1.02,2.79,2.09,4.2,3.12c1.29,0.95-11.95-9.6-4.69-3.55c2.68,2.24,5.37,4.47,7.97,6.81
			c5.22,4.7,10.21,9.67,14.92,14.88c2.25,2.48,4.43,5.02,6.55,7.61c2.77,3.37,7.41,10.3-3.44-4.59c1.17,1.61,2.4,3.18,3.57,4.8
			c8.7,12.04,15.83,24.95,22.02,38.43c3.69,8.03-4.24-10.51-2.32-5.58c0.62,1.61,1.29,3.19,1.91,4.8c1.49,3.88,2.88,7.8,4.17,11.75
			c2.53,7.76,4.66,15.64,6.43,23.61c0.87,3.9,1.65,7.82,2.34,11.76c0.38,2.12,0.71,4.26,1.05,6.39c1.76,10.93-1.45-12.75-0.51-4.07
			c0.95,8.81,1.78,17.61,2.13,26.47c0.79,19.96-0.17,39.97-2.43,59.8c-0.28,2.46-1.65,12.94-0.25,2.5c1.43-10.63-0.1,0.49-0.43,2.64
			c-0.85,5.55-1.79,11.08-2.83,16.6c-2.17,11.6-4.73,23.13-7.62,34.58c-6.39,25.34-14.38,50.27-23.5,74.75
			c-2.63,7.06-5.36,14.09-8.15,21.08c-1.61,4.04-3.28,8.06-4.92,12.09c-1.1,2.7-3.85,8.09,1.51-3.53c-1.19,2.58-2.23,5.23-3.36,7.84
			c-6.41,14.77-13.19,29.38-20.35,43.8c-13.67,27.52-28.76,54.34-45.46,80.14c-7.55,11.67-15.43,23.13-23.65,34.34
			c-2.28,3.11-4.61,6.19-6.92,9.28c-4.63,6.18,7.71-9.82,0.51-0.67c-4.17,5.3-8.43,10.54-12.76,15.71
			c-16.48,19.66-34.15,38.33-52.99,55.74c-8.91,8.23-18.07,16.18-27.49,23.81c-2.05,1.66-4.11,3.31-6.18,4.94
			c-9.18,7.23,8.72-6.53,1.17-0.91c-4.92,3.66-9.84,7.32-14.86,10.85c-18.31,12.9-37.43,24.66-57.22,35.16
			c-9.25,4.91-18.65,9.54-28.17,13.9c-2.41,1.1-4.83,2.19-7.26,3.26c-1.07,0.47-2.16,0.92-3.23,1.41c-5.98,2.69,7.1-2.8,6.62-2.78
			c-4.55,0.24-11.05,4.52-15.36,6.17c-36.97,14.21-75.47,24.31-114.57,30.54c-5.24,0.84-23.36,3.14-2.9,0.57
			c-4.66,0.58-9.31,1.18-13.97,1.7c-9.16,1.01-18.35,1.82-27.55,2.43c-17.69,1.18-35.43,1.64-53.16,1.42
			c-16.42-0.2-32.84-0.98-49.21-2.3c-7.84-0.63-15.67-1.39-23.48-2.27c-3.57-0.4-7.14-0.84-10.71-1.28
			c-0.83-0.1-1.65-0.22-2.48-0.32c-6.62-0.81,13.75,1.89,8.45,1.14c-2.02-0.29-4.05-0.56-6.07-0.85
			C30,795.27-12.13,785.88-52.76,772.3c-5.7-1.9-11.41-3.84-16.98-6.09c-10.8-4.34-27.4-0.77-36.99,4.84
			c-9.96,5.83-19.45,17.24-22.06,28.69c-2.8,12.29-2.19,26.08,4.84,36.99C-116.75,847.89-107.51,853.86-95.26,858.79L-95.26,858.79z
			"/>
	</g>
</g>
</svg>
